<svg xmlns="http://www.w3.org/2000/svg" viewBox="0 0 190.1 57.6"><path fill="#FFF" d="M38.9 52.6h-24C6.7 52.6 0 45.9 0 37.7c0-5.5 3-10.2 7.4-12.8-.3-1-.6-2.1-.6-3.2 0-5.7 4.6-10.3 10.3-10.3 1.1 0 2.1.2 3.1.5 3.3-7 10.3-12 18.6-12v52.7z"/><path fill="#00B1D0" d="M40.6 0h7.2v7.2h-7.2z"/><path fill="#1ED6B3" d="M49.6 0h7.2v7.2h-7.2z"/><path fill="#00B1D0" d="M40.6 9.1h7.2v7.2h-7.2z"/><path fill="#1ED6B3" d="M49.6 9.1h7.2v7.2h-7.2z"/><path fill="#4FDB6D" d="M58.7 9.1h7.2v7.2h-7.2z"/><path fill="#00B1D0" d="M40.6 18.1h7.2v7.2h-7.2z"/><path fill="#1ED6B3" d="M49.6 18.1h7.2v7.2h-7.2z"/><path fill="#4FDB6D" d="M58.7 18.1h7.2v7.2h-7.2z"/><path fill="#00B1D0" d="M40.6 27.1h7.2v7.2h-7.2z"/><path fill="#1ED6B3" d="M49.6 27.1h7.2v7.2h-7.2z"/><path fill="#4FDB6D" d="M58.7 27.1h7.2v7.2h-7.2z"/><path fill="#A2E538" d="M67.7 27.1h7.2v7.2h-7.2z"/><path fill="#00B1D0" d="M40.6 36.2h7.2v7.2h-7.2z"/><path fill="#1ED6B3" d="M49.6 36.2h7.2v7.2h-7.2z"/><path fill="#4FDB6D" d="M58.7 36.2h7.2v7.2h-7.2z"/><path fill="#A2E538" d="M67.7 36.2h7.2v7.2h-7.2z"/><path fill="#00B1D0" d="M40.6 45.2h7.2v7.2h-7.2z"/><path fill="#1ED6B3" d="M49.6 45.2h7.2v7.2h-7.2z"/><path fill="#4FDB6D" d="M58.7 45.2h7.2v7.2h-7.2z"/><g fill="#FFF"><path d="M84.7 21c0-5.5 3.5-8.7 8-8.7 1.7 0 3.1.3 4.3 1l-.4 1.1c-1-.5-2.3-.7-3.9-.7-3.8 0-6.5 2.5-6.5 7.3 0 5.1 2.6 7.1 5.9 7.1 1.8 0 3-.4 4.2-1.2l.6 1.1c-1.4.9-2.9 1.5-5 1.5-4.3-.2-7.2-2.8-7.2-8.5zM109.6 23.3c0 4-2 6.1-5.2 6.1s-5.2-2.1-5.2-6.1c0-4 2-6.1 5.2-6.1s5.2 2 5.2 6.1zm-1.5 0c0-3.4-1.5-4.9-3.7-4.9s-3.7 1.5-3.7 4.9c0 3.4 1.5 4.9 3.7 4.9 2.2-.1 3.7-1.5 3.7-4.9zM121.6 22v7h-1.4v-7.5c0-2.3-.9-3.2-2.9-3.2-1.1 0-2 .4-3 1.2V29h-1.4V17.5l1.4-.2v1c1-.7 2.2-1.2 3.6-1.2 2.2 0 3.6.8 3.8 3.1-.1.6-.1 1.1-.1 1.8zM131 28.8c-.6.3-1.3.6-2.3.6-1.8 0-2.6-1-2.6-2.3v-8.4h-1.7v-1.1h1.7v-2.9l1.4-.2v3.1h3.4l-.2 1.1h-3.3v7.1c0 1.9.5 2.5 1.8 2.5.5 0 .9-.1 1.4-.3l.4.8zM140.2 29.2l-.3-1.1c-1.3.9-2.4 1.3-3.6 1.3-1.9 0-3.4-.9-3.4-3.5 0-2.3 1.8-3.5 4.7-3.5.8 0 1.6.1 2.2.2v-1.5c0-1.7-.8-2.8-2.8-2.8-.9 0-1.9.2-2.8.8l-.4-1c1.1-.6 2.3-1 3.6-1 2.3 0 3.8 1.1 3.9 3.3v6c0 1 0 1.5.3 2.6l-1.4.2zm-3.4-1c1 0 2-.3 3.1-1v-3.5c-.6-.1-1.4-.2-2.3-.2-1.9 0-3.1.7-3.1 2.3-.1 1.5.7 2.4 2.3 2.4zM145.3 13.2c.4-.1 1.1-.1 1.4 0V15c-.4.1-1.1.1-1.4 0v-1.8zm0 4.3l1.4-.2V29h-1.4V17.5zM159.6 22v7h-1.4v-7.5c0-2.3-.9-3.2-2.9-3.2-1.1 0-2 .4-3 1.2V29h-1.4V17.5l1.4-.2v1c1-.7 2.2-1.2 3.6-1.2 2.2 0 3.6.8 3.8 3.1-.1.6-.1 1.1-.1 1.8zM170.7 27.5l.3 1c-1.3.6-2.5.8-3.7.8-3.4 0-4.9-1.8-4.9-5.9 0-4.5 1.9-6.3 4.8-6.3 2.6 0 3.9 1.5 4 4.4v1.9h-7.5c.1 3.5 1.3 4.6 3.5 4.6 1.5.1 2.5-.1 3.5-.5zm-6.7-5.1h6.1c-.1-3.1-.8-4.1-2.8-4.1-2 0-3.2 1.1-3.3 4.1zM174.8 17.6l1.4-.2v1.4c.6-1.2 1.4-1.6 2.3-1.6.6 0 .9.1 1.2.3l-.2 1.2c-.4-.1-.7-.2-1.2-.2-1 0-1.8.6-2.2 1.6V29h-1.4V17.6z"/></g><g fill="#FFF"><path d="M84.3 50.5l.6-2.8c1.5.7 2.9.9 4.1.9 1.8 0 2.6-.8 2.6-1.7 0-1-.6-1.5-2.8-2.5-2.3-1-3.9-2-3.9-4.6 0-2.7 2.4-4.9 5.9-4.9 1.5 0 3.1.3 4.3.9l-.6 2.7c-1-.3-2.1-.6-3.3-.6-1.1 0-2.3.6-2.3 1.5s.5 1.6 2.4 2.3c2.6 1 4.2 2.3 4.2 4.6 0 3.3-2.9 5.3-6.8 5.3-1.4 0-3.2-.4-4.4-1.1zM109 45.6c0 4-2.4 6.1-6.1 6.1-3.7 0-6.1-2.1-6.1-6.1s2.4-6.1 6.1-6.1c3.7.1 6.1 2.2 6.1 6.1zm-3.9 0c0-2.1-.7-3.1-2.2-3.1-1.5 0-2.2 1-2.2 3.1s.7 3.1 2.2 3.1c1.5 0 2.2-.9 2.2-3.1zM110.8 35.1l3.9-.2v16.4h-3.9V35.1zM128.2 39.8v11.5h-3.9v-.9c-1 .7-2.2 1.2-3.3 1.2-2.5 0-3.8-1.3-4-3.5v-8l3.9-.2v6.4c0 1.7.5 2.4 1.7 2.4.6 0 1.1-.2 1.7-.7v-8l3.9-.2zM138.5 48.5l.3 2.4c-.9.4-2.3.7-3.7.7-2.1 0-3.1-1-3.3-2.5-.1-.8-.1-1.4-.1-2.9v-3.5H130v-2.8h1.7v-2.3l3.9-1.1v3.4h3.3l-.4 2.8h-2.9v3.7c0 1.7.4 2.2 1.7 2.2.4.1.7 0 1.2-.1zM140.4 34.8c.9-.2 3-.2 3.9 0v3.4c-.9.2-3 .2-3.9 0v-3.4zm0 5.2l3.9-.2v11.5h-3.9V40zM158.4 45.6c0 4-2.4 6.1-6.1 6.1s-6.1-2.1-6.1-6.1 2.4-6.1 6.1-6.1 6.1 2.2 6.1 6.1zm-3.9 0c0-2.1-.7-3.1-2.2-3.1-1.5 0-2.2 1-2.2 3.1s.7 3.1 2.2 3.1c1.5 0 2.2-.9 2.2-3.1zM171.5 45.1v6.2h-3.9v-6.4c0-1.7-.4-2.4-1.8-2.4-.5 0-1.1.2-1.6.6v8.1h-3.9V40l3.9-.2v.9c1-.7 2.2-1.1 3.3-1.1 2.5 0 3.8 1.3 4 3.5v2zM173.2 50.7l.5-2.6c1.1.5 2 .8 3.2.8.8 0 1.1-.3 1.1-.8s-.4-.9-1.5-1.4c-1.8-.8-2.9-1.7-2.9-3.7 0-2.4 2.2-3.5 4.4-3.5 1.4 0 2.5.3 3.3.8l-.3 2.5c-.8-.3-1.6-.5-2.6-.5-.7 0-1.1.3-1.1.7 0 .5.7.9 1.7 1.3 2 .9 2.7 1.9 2.7 3.7 0 2.5-2.1 3.5-4.7 3.5-1.4.1-2.9-.2-3.8-.8z"/></g></svg>